<?xml version="1.0" standalone="no"?>
<!DOCTYPE svg PUBLIC "-//W3C//DTD SVG 20010904//EN"
 "http://www.w3.org/TR/2001/REC-SVG-20010904/DTD/svg10.dtd">
<svg version="1.0" xmlns="http://www.w3.org/2000/svg"
 width="467.000000pt" height="452.000000pt" viewBox="0 0 467.000000 452.000000"
 preserveAspectRatio="xMidYMid meet">
<metadata>
Created by potrace 1.16, written by Peter Selinger 2001-2019
</metadata>
<g transform="translate(0.000000,452.000000) scale(0.100000,-0.100000)"
fill="#FFFFFF" stroke="none">
<path d="M2215 4438 c-60 -38 -220 -124 -355 -190 -515 -251 -598 -295 -714
-372 -178 -118 -274 -203 -581 -509 -299 -299 -395 -388 -493 -457 -34 -24
-62 -47 -62 -52 0 -4 11 -47 25 -95 37 -128 70 -298 105 -553 91 -666 141
-823 410 -1310 160 -289 250 -469 301 -600 23 -58 44 -108 47 -111 4 -4 62 -9
129 -13 163 -8 229 -17 568 -77 392 -69 463 -78 657 -86 231 -8 372 7 873 96
266 47 450 69 588 70 46 1 59 5 64 19 51 151 158 374 308 642 271 486 358 738
420 1215 50 392 79 546 136 737 11 38 19 71 17 72 -2 1 -30 22 -63 46 -124 91
-236 194 -445 409 -472 487 -598 577 -1215 865 -233 108 -388 191 -513 272
-45 30 -86 54 -90 53 -4 0 -56 -32 -117 -71z m194 -62 c103 -66 244 -141 456
-241 249 -118 470 -230 574 -293 156 -94 325 -240 589 -506 231 -234 450 -438
517 -482 22 -14 25 -22 19 -48 -3 -17 -9 -33 -13 -36 -3 -3 -7 -14 -7 -25 -1
-11 -14 -74 -28 -140 -14 -66 -37 -203 -51 -305 -75 -542 -110 -705 -202 -930
-61 -151 -115 -261 -243 -495 -176 -322 -266 -506 -291 -591 l-9 -31 -128 -7
c-75 -4 -246 -28 -422 -57 -594 -101 -724 -116 -935 -105 -164 9 -209 15 -595
81 -367 63 -528 85 -622 85 -64 0 -69 2 -78 26 -6 14 -8 30 -4 35 3 5 1 9 -4
9 -4 0 -23 35 -42 77 -18 43 -61 132 -94 198 -33 66 -60 126 -59 133 0 7 -2
11 -5 8 -9 -9 -83 134 -76 146 4 6 3 8 -2 5 -12 -7 -137 221 -215 393 -98 217
-153 425 -199 755 -55 394 -103 665 -134 753 l-14 38 46 40 c155 132 248 220
422 398 326 333 541 513 753 630 92 51 185 97 479 236 229 109 450 228 507
271 13 11 28 19 32 19 5 0 40 -20 78 -44z"/>
<path d="M2216 3789 c-52 -41 -24 -99 59 -120 54 -14 73 -32 55 -54 -17 -21
-46 -19 -70 5 -21 21 -65 27 -75 10 -4 -6 7 -24 24 -40 26 -26 37 -30 86 -30
49 0 60 4 86 29 16 16 29 39 29 51 0 32 -41 66 -98 80 -39 10 -52 18 -52 32 0
23 42 25 60 3 17 -20 59 -19 67 2 19 48 -117 75 -171 32z"/>
<path d="M2616 3713 c-3 -42 -6 -97 -6 -124 0 -44 2 -48 31 -58 18 -6 33 -11
35 -11 1 0 19 29 40 65 21 36 42 65 46 65 4 0 8 -33 8 -74 0 -41 3 -77 8 -79
4 -3 21 -7 37 -11 30 -6 31 -4 88 105 32 61 57 112 55 114 -2 1 -17 6 -33 9
-29 6 -32 4 -62 -56 l-32 -63 0 71 c-1 77 -6 84 -57 84 -19 0 -31 -12 -55 -55
-17 -30 -33 -55 -36 -55 -2 0 -3 30 -2 67 2 58 0 68 -17 74 -37 15 -41 10 -48
-68z"/>
<path d="M1963 3769 c-21 -6 -34 -17 -38 -32 -7 -35 -33 -232 -30 -235 2 -2
18 1 36 6 23 5 35 15 37 29 2 15 15 24 45 32 37 9 44 8 57 -8 12 -13 25 -17
48 -13 18 2 32 8 32 13 0 12 -142 219 -149 218 -3 0 -21 -5 -38 -10z"/>
<path d="M1695 3690 c-55 -21 -100 -43 -99 -49 1 -6 2 -18 3 -27 1 -12 7 -15
24 -10 68 19 61 24 96 -69 32 -83 34 -86 60 -80 14 3 30 10 34 14 5 5 -5 44
-22 87 -17 44 -31 83 -31 87 0 4 16 15 35 23 29 12 33 17 26 36 -4 12 -12 23
-17 24 -5 1 -54 -15 -109 -36z"/>
<path d="M2994 3583 c-70 -153 -68 -141 -31 -157 18 -7 33 -13 34 -12 0 1 24
50 52 111 l50 110 -22 12 c-39 21 -47 15 -83 -64z"/>
<path d="M1478 3592 l-27 -18 61 -106 62 -107 28 15 c16 8 28 21 26 27 -5 20
-111 207 -117 207 -3 0 -18 -8 -33 -18z"/>
<path d="M3167 3553 c-13 -21 -43 -67 -66 -102 -22 -35 -41 -67 -41 -71 0 -8
59 -35 63 -29 2 2 14 21 27 41 33 50 50 35 50 -43 0 -55 2 -59 30 -74 16 -8
32 -15 36 -15 3 0 4 29 2 64 -3 44 0 62 7 59 19 -7 63 15 75 37 19 35 -5 75
-64 111 -28 18 -61 38 -73 46 -20 14 -23 12 -46 -24z"/>
<path d="M1282 3460 c-46 -33 -60 -69 -44 -105 16 -34 55 -41 111 -21 57 20
77 20 85 1 8 -23 -22 -46 -59 -43 -22 1 -42 -5 -55 -17 -20 -18 -20 -20 -4
-32 43 -32 137 5 168 65 27 52 -6 112 -60 112 -12 0 -43 -9 -69 -20 -48 -21
-65 -19 -65 5 0 19 19 29 51 27 15 -1 33 6 43 17 44 48 -39 57 -102 11z"/>
<path d="M3400 3304 c-63 -31 -117 -58 -119 -60 -2 -2 4 -13 14 -25 13 -14 26
-18 42 -14 17 4 34 -3 58 -22 29 -23 34 -33 30 -53 -4 -19 1 -32 18 -48 l24
-23 53 122 52 122 -29 29 -29 29 -114 -57z"/>
<path d="M1050 3245 l-65 -66 88 -86 88 -87 27 28 27 27 -38 36 c-53 48 -38
63 42 41 l60 -16 27 29 27 28 -29 12 c-16 6 -46 12 -67 12 -36 2 -37 3 -31 30
4 22 0 35 -17 53 -38 40 -67 32 -139 -41z"/>
<path d="M2315 3266 c-18 -42 -22 -43 -70 -15 l-37 22 7 -47 7 -46 -46 0 c-51
0 -56 -8 -26 -35 29 -27 25 -40 -21 -61 l-41 -18 41 -18 c47 -20 48 -23 21
-58 -28 -36 -25 -43 20 -37 44 6 44 5 40 -56 -2 -36 -1 -38 18 -28 12 6 24 16
27 21 13 21 25 9 25 -24 0 -28 -6 -38 -35 -55 -61 -36 -69 -99 -18 -153 20
-21 24 -32 18 -56 -5 -25 -12 -31 -43 -36 -57 -9 -61 -8 -81 25 -15 25 -17 36
-8 65 9 29 8 39 -9 61 -11 15 -35 32 -53 38 -35 12 -63 46 -43 53 26 8 9 29
-59 71 -39 23 -72 41 -75 38 -3 -2 -2 -41 2 -86 6 -75 8 -81 29 -81 29 0 36
-18 28 -79 -5 -48 -5 -50 28 -70 19 -12 41 -21 49 -21 18 0 53 -57 44 -72 -10
-16 -86 -48 -115 -48 -15 0 -64 13 -110 30 -128 46 -186 42 -305 -16 -60 -30
-100 -44 -111 -40 -25 10 -313 -5 -313 -16 0 -5 38 -27 85 -49 l84 -41 -29
-25 c-40 -33 -38 -48 10 -62 22 -6 40 -15 40 -20 0 -4 -11 -18 -25 -31 -14
-13 -25 -27 -25 -31 0 -4 29 -15 65 -24 36 -10 65 -22 65 -27 0 -5 -7 -19 -15
-32 -18 -28 -10 -37 48 -56 27 -8 37 -16 33 -27 -27 -69 -18 -83 57 -83 26 0
47 -2 47 -5 0 -4 -7 -19 -15 -36 -9 -16 -13 -34 -10 -39 3 -6 36 -10 72 -10
63 0 65 -1 58 -22 -17 -57 -17 -68 1 -75 29 -11 179 16 271 49 l86 31 18 -24
c34 -44 34 -67 -2 -142 -19 -39 -62 -113 -97 -165 -34 -52 -59 -98 -56 -103 7
-11 49 -5 159 23 109 28 189 66 256 120 l57 46 33 -35 c61 -62 229 -131 387
-158 30 -5 42 -3 42 5 0 7 -27 48 -60 92 -61 81 -102 153 -125 217 -11 32 -9
39 18 83 29 46 30 47 56 34 54 -28 196 -67 267 -73 84 -7 97 3 70 56 -9 16
-16 32 -16 35 0 3 30 6 68 8 72 3 77 9 58 64 -6 20 -2 22 49 26 30 3 58 8 62
11 3 4 -1 24 -9 46 l-15 38 46 15 c51 16 63 38 36 69 -14 15 -15 19 -4 23 8 2
38 12 66 21 29 9 55 20 58 24 2 5 -7 19 -20 31 -14 13 -25 27 -25 30 0 4 18
14 40 23 22 8 40 20 40 25 0 6 -14 21 -30 34 l-30 24 77 40 c126 66 130 64
-197 69 -65 1 -85 7 -155 40 -115 56 -190 59 -323 15 -106 -36 -150 -36 -193
-1 l-23 18 20 33 c11 19 32 38 49 43 54 17 68 37 62 87 -6 51 6 80 32 80 14 0
20 10 25 46 8 58 8 124 0 124 -3 0 -37 -20 -76 -45 -57 -37 -68 -48 -58 -60
17 -21 -4 -53 -42 -63 -17 -4 -40 -20 -51 -34 -17 -23 -18 -33 -10 -60 8 -27
6 -40 -10 -70 -23 -43 -25 -43 -72 -24 -43 18 -47 54 -10 98 34 40 34 100 0
133 -13 14 -31 25 -38 25 -14 0 -34 66 -23 77 3 3 18 -4 34 -16 17 -12 32 -21
35 -21 2 0 2 20 -1 45 l-5 45 47 0 47 0 -26 34 c-28 37 -28 38 35 67 l35 16
-40 13 c-58 18 -57 18 -30 58 14 20 25 40 25 43 0 4 -21 4 -46 1 l-46 -5 3 47
c2 25 2 46 -1 46 -3 0 -16 -9 -30 -20 -34 -27 -46 -25 -60 10 -18 44 -29 46
-45 6z m85 -91 c38 -20 60 -63 60 -116 0 -35 -6 -47 -37 -79 -21 -20 -44 -39
-51 -41 -9 -3 -10 -21 -6 -68 7 -58 9 -64 36 -73 55 -19 64 -79 19 -130 -22
-25 -28 -40 -24 -61 l5 -27 -66 0 -66 0 0 33 c0 21 -9 40 -24 54 -45 43 -38
106 14 126 32 12 35 19 45 97 5 44 4 45 -32 65 -80 42 -93 137 -28 202 28 28
40 33 79 33 26 0 60 -7 76 -15z m-455 -317 c24 -16 34 -29 31 -40 -6 -28 36
-83 66 -86 14 -2 34 -12 44 -23 16 -17 16 -24 5 -55 -11 -31 -10 -38 10 -70
18 -30 19 -38 8 -45 -22 -14 -29 -11 -50 26 -14 23 -28 35 -43 35 -52 0 -80
46 -55 91 8 15 5 27 -11 54 -12 19 -28 35 -36 35 -10 0 -14 13 -14 50 0 28 2
50 5 50 3 0 21 -10 40 -22z m815 3 c0 -39 -13 -81 -25 -81 -22 0 -55 -61 -44
-81 25 -47 -5 -99 -56 -99 -14 0 -29 -13 -44 -40 -24 -43 -28 -45 -51 -30 -12
8 -11 15 8 49 19 34 21 46 14 75 -12 43 6 73 45 78 31 3 76 62 68 87 -3 11 8
23 33 38 46 27 52 28 52 4z m-350 -311 c52 -10 105 -32 200 -85 59 -32 88 -31
195 5 120 41 185 40 288 -1 75 -30 92 -50 51 -58 -41 -7 -227 -102 -301 -153
-42 -29 -140 -116 -217 -194 -156 -155 -204 -186 -290 -188 -85 -1 -142 35
-297 187 -75 74 -165 154 -200 179 -81 58 -216 129 -297 159 -70 25 -71 24 23
70 81 39 151 39 270 -1 49 -16 99 -30 111 -30 12 0 62 21 111 47 127 68 231
86 353 63z m-940 -152 c91 -26 171 -61 162 -70 -20 -20 -187 -22 -264 -3 -79
18 -188 63 -188 76 0 18 225 16 290 -3z m2020 3 c0 -4 -44 -26 -97 -47 -93
-36 -104 -38 -213 -39 -64 0 -123 5 -133 11 -15 9 -12 13 26 32 77 38 145 51
285 51 72 1 132 -3 132 -8z m-2130 -102 c59 -14 208 -13 275 2 46 10 55 9 80
-7 25 -17 26 -19 9 -31 -10 -7 -43 -22 -73 -34 -77 -29 -233 -23 -336 13 -38
14 -69 29 -69 34 1 10 43 34 59 34 6 0 30 -5 55 -11z m1680 1 c47 -14 213 -14
274 0 37 8 57 8 78 -1 53 -22 33 -37 -92 -69 -115 -30 -243 -25 -314 11 -58
29 -65 42 -34 57 30 14 45 14 88 2z m-1242 -56 c12 -8 22 -19 22 -23 0 -11
-124 -67 -180 -81 -70 -19 -205 -17 -287 4 -40 10 -73 21 -73 26 0 4 9 15 19
24 18 16 24 16 101 2 139 -27 234 -16 323 38 50 30 47 30 75 10z m1142 -9 c49
-31 138 -55 200 -55 25 1 81 7 125 15 72 13 82 13 104 -2 23 -15 23 -17 7 -28
-25 -19 -140 -38 -226 -39 -85 0 -197 29 -269 71 l-44 26 24 18 c31 24 32 24
79 -6z m-1058 -56 l30 -21 -44 -29 c-64 -43 -176 -87 -255 -100 -72 -12 -182
-1 -226 22 -18 10 -18 12 -1 30 14 16 31 19 98 19 107 0 204 22 285 64 36 18
70 34 74 35 5 0 22 -9 39 -20z m1017 -13 c93 -47 172 -66 278 -66 88 0 113 -8
113 -37 0 -20 -79 -37 -175 -36 -102 0 -189 27 -297 90 l-60 35 23 24 c12 13
29 24 36 24 7 0 44 -15 82 -34z m-930 -62 c17 -14 31 -30 31 -34 0 -15 -112
-70 -194 -96 -127 -40 -356 -54 -356 -22 0 5 5 18 10 29 9 16 22 19 83 19 99
0 175 22 282 80 50 27 95 49 102 50 6 0 25 -12 42 -26z m880 -28 c113 -58 182
-76 288 -76 59 0 64 -2 74 -26 5 -15 7 -30 3 -33 -12 -12 -204 -3 -280 14 -76
16 -264 96 -264 111 0 12 52 64 64 64 5 0 57 -24 115 -54z m-780 -80 c32 -33
33 -37 27 -88 -4 -29 -13 -75 -19 -103 l-13 -49 -17 24 c-41 58 -55 170 -30
236 8 21 16 17 52 -20z m581 8 c18 -47 12 -135 -15 -191 -13 -29 -29 -53 -35
-53 -5 0 -10 3 -10 8 0 8 -17 120 -25 164 -3 21 3 37 26 63 37 42 46 43 59 9z
m-666 -21 c-4 -21 -12 -44 -18 -52 -14 -18 -85 -50 -151 -68 -57 -15 -235 -29
-259 -20 -15 6 -15 9 -2 35 14 27 20 29 88 35 96 9 173 29 261 71 40 19 76 35
80 35 4 1 5 -16 1 -36z m867 -33 c49 -16 125 -33 168 -36 71 -6 80 -9 90 -32
7 -13 9 -27 5 -31 -3 -3 -51 -6 -107 -5 -75 0 -119 6 -169 22 -131 41 -157 63
-158 130 l0 22 40 -20 c23 -12 81 -34 131 -50z m-671 -87 c40 -56 123 -216
135 -260 8 -29 -58 -92 -139 -131 -62 -31 -248 -86 -267 -80 -6 2 4 23 21 47
64 87 156 293 176 390 10 50 21 91 25 91 4 0 26 -26 49 -57z m385 -73 c26
-137 70 -233 161 -353 l37 -48 -39 7 c-56 10 -193 53 -235 74 -19 10 -59 37
-88 60 -48 38 -53 45 -47 73 9 43 52 126 121 232 66 103 62 105 90 -45z m-585
98 c0 -7 3 -23 6 -36 6 -19 -1 -25 -47 -46 -72 -31 -174 -56 -232 -56 -51 0
-53 3 -33 39 11 20 29 27 99 42 47 9 109 28 139 42 63 30 68 31 68 15z m782
-18 c36 -16 96 -34 134 -41 67 -11 114 -41 114 -71 0 -21 -151 -1 -243 32 -75
28 -87 35 -87 55 0 22 9 55 15 55 1 0 32 -13 67 -30z m-320 -37 c-17 -26 -47
-83 -68 -125 l-38 -78 -51 98 c-27 53 -59 109 -69 125 -21 31 -8 36 34 12 34
-19 116 -18 170 4 25 10 47 16 49 15 2 -2 -10 -25 -27 -51z"/>
<path d="M2273 3160 c-38 -23 -53 -48 -53 -90 0 -69 63 -127 128 -117 44 8 90
51 98 92 9 47 -17 98 -59 118 -46 22 -75 21 -114 -3z"/>
<path d="M3600 3109 c-123 -87 -118 -74 -59 -154 54 -75 69 -85 88 -61 11 13
8 23 -18 58 -17 23 -31 45 -31 49 0 3 34 30 75 58 41 29 75 55 75 59 -1 8 -36
52 -42 52 -2 0 -41 -27 -88 -61z"/>
<path d="M865 3013 c-27 -42 -51 -79 -53 -83 -1 -4 35 -31 80 -60 46 -29 92
-59 104 -67 20 -12 24 -8 77 71 32 46 57 87 57 90 0 3 -9 10 -19 16 -17 8 -24
3 -55 -40 -36 -50 -49 -57 -75 -41 -12 8 -8 19 19 61 27 42 31 53 19 61 -23
14 -29 11 -57 -36 -28 -46 -37 -51 -61 -36 -12 8 -8 19 21 64 27 40 34 57 25
66 -20 20 -32 11 -82 -66z"/>
<path d="M3770 2913 c-56 -21 -83 -39 -95 -64 -48 -91 34 -213 130 -195 52 10
98 47 114 92 13 36 12 44 -7 86 -11 25 -31 53 -44 62 -28 18 -76 28 -98 19z"/>
<path d="M766 2842 c-3 -5 -10 -21 -15 -35 -9 -23 -5 -29 65 -82 41 -31 74
-59 74 -62 0 -3 -44 -2 -99 2 -90 6 -99 5 -103 -12 -3 -10 -9 -26 -13 -35 -7
-17 3 -18 127 -18 135 0 135 0 146 25 19 40 16 47 -45 105 -109 103 -131 122
-137 112z"/>
<path d="M3890 2603 c-52 -13 -106 -26 -118 -29 -26 -5 -26 -6 4 -111 24 -86
99 -115 184 -71 66 34 76 61 55 153 -9 41 -19 76 -23 78 -4 2 -50 -7 -102 -20z"/>
<path d="M645 2499 c-4 -17 -3 -34 1 -39 5 -4 54 -17 109 -30 55 -12 105 -25
112 -27 16 -6 34 60 19 68 -6 4 -54 16 -106 28 -52 12 -102 24 -112 27 -12 3
-18 -4 -23 -27z"/>
<path d="M618 2354 c-5 -4 -8 -20 -8 -36 0 -26 3 -28 38 -29 20 -1 51 -4 67
-8 29 -7 29 -8 -42 -46 -56 -31 -74 -46 -78 -67 -4 -15 -4 -32 -1 -37 5 -7
157 -23 241 -26 6 0 11 14 13 32 l3 31 -66 7 c-75 8 -75 12 12 60 50 28 59 37
64 67 l5 36 -70 6 c-39 4 -93 9 -121 12 -27 3 -53 2 -57 -2z"/>
<path d="M4005 2314 c-11 -2 -59 -6 -107 -9 l-88 -7 0 -34 0 -34 55 0 c70 0
73 -19 10 -58 -42 -25 -45 -30 -45 -70 l0 -43 28 15 c16 8 39 26 53 40 l23 24
23 -24 c25 -28 59 -31 91 -8 19 13 22 24 22 77 0 34 -3 79 -6 100 -7 37 -9 39
-59 31z"/>
<path d="M3820 2028 c0 -7 -3 -23 -6 -35 -4 -16 0 -23 15 -28 15 -4 21 -15 21
-33 0 -42 -11 -72 -26 -72 -16 0 -34 -31 -34 -60 0 -16 5 -20 18 -16 9 3 66
17 127 31 60 14 113 31 117 38 4 7 8 26 8 42 0 29 -6 33 -115 88 -63 31 -117
57 -120 57 -3 0 -5 -6 -5 -12z"/>
<path d="M670 2023 c-68 -10 -70 -12 -70 -49 0 -36 0 -36 38 -30 154 22 172
19 172 -35 0 -24 -5 -30 -37 -38 -21 -6 -64 -13 -95 -16 l-58 -6 0 -36 0 -36
78 7 c130 12 178 49 168 132 -7 57 -24 90 -53 103 -23 11 -90 13 -143 4z"/>
<path d="M1736 1110 c-20 -50 -36 -96 -36 -104 0 -8 31 -25 72 -40 68 -26 73
-26 85 -10 20 27 17 31 -32 50 -35 13 -44 21 -40 33 54 135 55 140 35 151 -38
20 -47 11 -84 -80z"/>
<path d="M2807 1188 c-28 -10 -28 -11 -25 -79 2 -38 1 -69 -2 -69 -3 0 -21 23
-40 51 -18 28 -37 52 -41 55 -7 4 -79 -23 -79 -30 0 -3 16 -50 36 -106 33 -91
39 -100 58 -94 35 11 37 18 17 77 -11 31 -19 57 -17 57 2 0 19 -24 39 -54 30
-45 40 -53 58 -49 20 6 21 11 17 79 -3 41 -4 74 -3 74 2 0 13 -29 25 -64 23
-64 23 -64 52 -54 32 11 33 4 -14 136 -17 45 -35 82 -41 81 -7 0 -25 -5 -40
-11z"/>
<path d="M3536 1155 c-16 -24 -15 -25 39 -71 66 -57 76 -81 45 -106 -12 -10
-26 -18 -31 -18 -4 0 -35 25 -69 57 l-61 56 -21 -21 c-11 -11 -18 -27 -15 -35
11 -29 115 -108 151 -114 33 -5 40 -1 81 39 65 65 63 91 -17 174 -33 35 -67
64 -73 64 -7 0 -20 -11 -29 -25z"/>
<path d="M1073 1102 c-45 -37 -82 -72 -83 -78 0 -6 9 -19 20 -29 22 -20 13
-25 120 64 36 29 67 58 69 63 3 9 -28 48 -38 48 -3 -1 -43 -31 -88 -68z"/>
<path d="M2027 1098 c-10 -46 -30 -198 -26 -202 2 -2 18 -6 34 -8 28 -3 30 0
33 30 3 33 5 34 45 31 69 -3 77 0 94 35 31 66 -1 106 -97 121 -25 3 -52 9 -61
11 -11 3 -18 -3 -22 -18z"/>
<path d="M2366 1093 l-39 -4 7 -76 c3 -42 6 -91 6 -110 0 -31 2 -33 35 -33 33
0 35 2 35 35 0 32 2 35 30 35 46 0 79 20 88 54 21 79 -36 114 -162 99z"/>
<path d="M1221 940 c-71 -79 -73 -82 -56 -100 25 -28 32 -26 77 23 l39 42 -6
-75 c-6 -70 -5 -77 18 -98 l23 -22 77 87 c73 82 76 87 61 105 -25 26 -37 23
-73 -22 -17 -22 -35 -40 -40 -40 -4 0 -4 32 1 71 7 61 6 74 -8 90 -10 11 -22
19 -29 19 -6 0 -44 -36 -84 -80z"/>
<path d="M3308 940 c-23 -18 -28 -29 -28 -66 0 -24 -2 -44 -5 -44 -3 0 -22 7
-41 15 -33 13 -39 13 -65 -2 -16 -10 -29 -20 -29 -23 0 -4 30 -17 68 -29 50
-17 76 -33 104 -64 36 -40 37 -40 63 -23 27 18 27 21 -11 71 -19 25 -24 46
-26 109 l-3 78 -27 -22z"/>
<path d="M1515 727 c-27 -50 -51 -95 -53 -98 -1 -3 24 -20 57 -37 93 -50 147
-40 186 36 20 40 22 80 6 110 -10 19 -117 82 -138 82 -4 0 -30 -42 -58 -93z"/>
<path d="M2941 727 c-24 -11 -24 -12 -17 -126 4 -64 9 -117 11 -119 2 -3 16
-2 30 2 18 5 25 13 25 32 0 33 63 63 93 44 15 -9 26 -9 48 1 17 6 28 15 27 19
-7 18 -167 160 -179 159 -8 0 -25 -6 -38 -12z"/>
<path d="M1860 687 c0 -1 -13 -49 -30 -107 -16 -57 -26 -107 -22 -111 4 -4 18
-9 32 -11 22 -3 27 3 38 40 8 23 18 42 23 42 12 0 26 -29 34 -72 6 -29 13 -39
37 -47 17 -6 34 -11 38 -11 9 0 -6 74 -21 101 -8 15 -6 19 9 19 45 0 69 71 35
103 -17 15 -173 64 -173 54z"/>
<path d="M2707 649 c-20 -3 -39 -8 -41 -10 -2 -2 -8 -35 -13 -74 l-10 -70 -29
63 c-30 65 -42 72 -102 56 -19 -5 -22 -12 -18 -33 37 -187 38 -191 66 -191
l27 0 -13 68 c-20 101 -17 104 27 21 36 -67 44 -75 65 -71 21 4 24 10 25 46 0
22 4 61 8 86 8 50 9 48 31 -63 11 -53 14 -57 33 -51 12 3 24 8 26 10 4 4 -29
180 -38 204 -5 12 -15 14 -44 9z"/>
<path d="M2197 513 c-26 -54 -47 -104 -47 -110 0 -18 57 -16 64 2 4 10 20 15
52 15 37 0 47 -4 51 -19 4 -16 59 -38 69 -28 2 2 -11 56 -28 120 l-32 117 -42
0 -41 0 -46 -97z"/>
</g>
</svg>
